ffmpeg version 3.4.8-0ubuntu0.2 Copyright (c) 2000-2020 the FFmpeg developers
  built with gcc 7 (Ubuntu 7.5.0-3ubuntu1~18.04)
  configuration: --prefix=/usr --extra-version=0ubuntu0.2 --toolchain=hardened --libdir=/usr/lib/x86_64-linux-gnu --incdir=/usr/include/x86_64-linux-gnu --enable-gpl --disable-stripping --enable-avresample --enable-avisynth --enable-gnutls --enable-ladspa --enable-libass --enable-libbluray --enable-libbs2b --enable-libcaca --enable-libcdio --enable-libflite --enable-libfontconfig --enable-libfreetype --enable-libfribidi --enable-libgme --enable-libgsm --enable-libmp3lame --enable-libmysofa --enable-libopenjpeg --enable-libopenmpt --enable-libopus --enable-libpulse --enable-librubberband --enable-librsvg --enable-libshine --enable-libsnappy --enable-libsoxr --enable-libspeex --enable-libssh --enable-libtheora --enable-libtwolame --enable-libvorbis --enable-libvpx --enable-libwavpack --enable-libwebp --enable-libx265 --enable-libxml2 --enable-libxvid --enable-libzmq --enable-libzvbi --enable-omx --enable-openal --enable-opengl --enable-sdl2 --enable-libdc1394 --enable-libdrm --enable-libiec61883 --enable-chromaprint --enable-frei0r --enable-libopencv --enable-libx264 --enable-shared
  libavutil      55. 78.100 / 55. 78.100
  libavcodec     57.107.100 / 57.107.100
  libavformat    57. 83.100 / 57. 83.100
  libavdevice    57. 10.100 / 57. 10.100
  libavfilter     6.107.100 /  6.107.100
  libavresample   3.  7.  0 /  3.  7.  0
  libswscale      4.  8.100 /  4.  8.100
  libswresample   2.  9.100 /  2.  9.100
  libpostproc    54.  7.100 / 54.  7.100
[rawvideo @ 0x55674170ba20] Estimating duration from bitrate, this may be inaccurate
Input #0, rawvideo, from '../../SVC-Encoder-20220109T061506Z-001/SVC-Encoder/Dataset/RollerCoaster/ERP_8x8/tile_yuv/Tile_12_480x240.yuv':
  Duration: 00:00:10.00, start: 0.000000, bitrate: 41472 kb/s
    Stream #0:0: Video: rawvideo (I420 / 0x30323449), yuv420p, 480x240, 41472 kb/s, 30 tbr, 30 tbn, 30 tbc
Stream mapping:
  Stream #0:0 -> #0:0 (rawvideo (native) -> h264 (libx264))
Press [q] to stop, [?] for help
[libx264 @ 0x556741718c60] using cpu capabilities: MMX2 SSE2Fast LZCNT SSSE3 SSE4.2 AVX
[libx264 @ 0x556741718c60] profile High, level 2.1
Output #0, rawvideo, to 'RollerCoaster_Tile_12_480x240_x264_QP_28.h264':
  Metadata:
    encoder         : Lavf57.83.100
    Stream #0:0: Video: h264 (libx264), yuv420p, 480x240, q=-1--1, 30 fps, 30 tbn, 30 tbc
    Metadata:
      encoder         : Lavc57.107.100 libx264
    Side data:
      cpb: bitrate max/min/avg: 0/0/0 buffer size: 0 vbv_delay: -1
frame=  300 fps=0.0 q=34.0 LPSNR=Y:inf U:inf V:inf *:inf size=      11kB time=00:00:09.93 bitrate=   8.7kbits/s speed=44.3x    
video:11kB audio:0kB subtitle:0kB other streams:0kB global headers:0kB muxing overhead: 0.000000%
[libx264 @ 0x556741718c60] frame I:3     Avg QP:25.51  size:  1016  PSNR Mean Y:51.34 U:56.71 V:55.21 Avg:52.25 Global:51.51
[libx264 @ 0x556741718c60] frame P:76    Avg QP:29.09  size:    52  PSNR Mean Y:52.11 U:55.23 V:54.84 Avg:52.85 Global:52.80
[libx264 @ 0x556741718c60] frame B:221   Avg QP:33.62  size:    17  PSNR Mean Y:52.07 U:55.18 V:54.87 Avg:52.82 Global:52.73
[libx264 @ 0x556741718c60] consecutive B-frames:  1.3%  0.7%  2.0% 96.0%
[libx264 @ 0x556741718c60] mb I  I16..4: 90.9%  6.1%  3.0%
[libx264 @ 0x556741718c60] mb P  I16..4:  1.2%  0.7%  0.0%  P16..4:  1.6%  0.2%  0.0%  0.0%  0.0%    skip:96.3%
[libx264 @ 0x556741718c60] mb B  I16..4:  0.0%  0.0%  0.0%  B16..8:  0.2%  0.0%  0.0%  direct: 0.0%  skip:99.7%  L0:41.9% L1:57.2% BI: 1.0%
[libx264 @ 0x556741718c60] 8x8 transform intra:16.0% inter:74.0%
[libx264 @ 0x556741718c60] coded y,uvDC,uvAC intra: 2.7% 5.4% 0.0% inter: 0.0% 0.0% 0.0%
[libx264 @ 0x556741718c60] i16 v,h,dc,p: 16% 63% 10% 11%
[libx264 @ 0x556741718c60] i8 v,h,dc,ddl,ddr,vr,hd,vl,hu:  1% 21% 74%  0%  1%  0%  1%  0%  0%
[libx264 @ 0x556741718c60] i4 v,h,dc,ddl,ddr,vr,hd,vl,hu:  9% 30% 33%  5%  4%  2% 11%  3%  4%
[libx264 @ 0x556741718c60] i8c dc,h,v,p: 87% 10%  3%  0%
[libx264 @ 0x556741718c60] Weighted P-Frames: Y:0.0% UV:0.0%
[libx264 @ 0x556741718c60] ref P L0: 84.1%  7.0%  7.0%  1.9%
[libx264 @ 0x556741718c60] ref B L0: 88.7% 10.4%  0.9%
[libx264 @ 0x556741718c60] ref B L1: 94.7%  5.3%
[libx264 @ 0x556741718c60] PSNR Mean Y:52.071 U:55.209 V:54.867 Avg:52.824 Global:52.734 kb/s:8.65
